{"title":"R... Rajkumar 2013 Hindi Movies Super CamRip with Sample ~ â˜»rDXâ˜»","uid":9307697,"size":741701632,"categoryP":"video","categoryS":"movies","magnet":"?xt=urn:btih:8d5350d7abdb2351dcad87315e1ec1943e91d929&amp;dn=R...+Rajkumar+2013+Hindi+Movies+Super+CamRip+with+Sample+%7E+%E2%98%BBrDX%E2%98%BB&amp;tr=udp%3A%2F%2Ftracker.openbittorrent.com%3A80&amp;tr=udp%3A%2F%2Fopen.demonii.com%3A1337&amp;tr=udp%3A%2F%2Ftracker.coppersurfer.tk%3A6969&amp;tr=udp%3A%2F%2Fexodus.desync.com%3A6969","seeders":0,"leechers":0,"uploader":"basicssom","files":2,"time":1386345401,"description":" &lt;a href=&quot;http://s5.postimg.org/hgeuxszk7/logo.png&quot; rel=&quot;nofollow&quot; target=&quot;_NEW&quot;&gt;http://s5.postimg.org/hgeuxszk7/logo.png&lt;/a&gt;\n\nR... Rajkumar 2013 Hindi Movies Super CamRip with Sample ~ â˜»rDXâ˜»\n\nPlease check SCREEN SHOTS first :\n &lt;a href=&quot;\nhttp://imageshere.co.nr/2013/12/RRajkumar/1.html&quot; rel=&quot;nofollow&quot; target=&quot;_NEW&quot;&gt;\nhttp://imageshere.co.nr/2013/12/RRajkumar/1.html&lt;/a&gt;\n &lt;a href=&quot;\nhttp://imageshere.co.nr/2013/12/RRajkumar/2.html&quot; rel=&quot;nofollow&quot; target=&quot;_NEW&quot;&gt;\nhttp://imageshere.co.nr/2013/12/RRajkumar/2.html&lt;/a&gt;\n &lt;a href=&quot;\nhttp://imageshere.co.nr/2013/12/RRajkumar/3.html&quot; rel=&quot;nofollow&quot; target=&quot;_NEW&quot;&gt;\nhttp://imageshere.co.nr/2013/12/RRajkumar/3.html&lt;/a&gt;\n &lt;a href=&quot;\nhttp://imageshere.co.nr/2013/12/RRajkumar/4.html&quot; rel=&quot;nofollow&quot; target=&quot;_NEW&quot;&gt;\nhttp://imageshere.co.nr/2013/12/RRajkumar/4.html&lt;/a&gt;\n &lt;a href=&quot;\nhttp://imageshere.co.nr/2013/12/RRajkumar/5.html&quot; rel=&quot;nofollow&quot; target=&quot;_NEW&quot;&gt;\nhttp://imageshere.co.nr/2013/12/RRajkumar/5.html&lt;/a&gt;\n &lt;a href=&quot;\nhttp://imageshere.co.nr/2013/12/RRajkumar/6.html&quot; rel=&quot;nofollow&quot; target=&quot;_NEW&quot;&gt;\nhttp://imageshere.co.nr/2013/12/RRajkumar/6.html&lt;/a&gt;\n\nAll rDX torrents are Seeding From the 1Gbps Seedbox 24X7\n &lt;a href=&quot;\nhttp://users2.jabry.com/myimghost/2013/RRajkumar/19.jpg&quot; rel=&quot;nofollow&quot; target=&quot;_NEW&quot;&gt;\nhttp://users2.jabry.com/myimghost/2013/RRajkumar/19.jpg&lt;/a&gt;\n &lt;a href=&quot;\nhttp://users2.jabry.com/myimghost/2013/RRajkumar/20.jpg&quot; rel=&quot;nofollow&quot; target=&quot;_NEW&quot;&gt;\nhttp://users2.jabry.com/myimghost/2013/RRajkumar/20.jpg&lt;/a&gt;\n &lt;a href=&quot;\nhttp://users2.jabry.com/myimghost/2013/RRajkumar/21.jpg&quot; rel=&quot;nofollow&quot; target=&quot;_NEW&quot;&gt;\nhttp://users2.jabry.com/myimghost/2013/RRajkumar/21.jpg&lt;/a&gt;\n &lt;a href=&quot;\nhttp://users2.jabry.com/myimghost/2013/RRajkumar/22.jpg&quot; rel=&quot;nofollow&quot; target=&quot;_NEW&quot;&gt;\nhttp://users2.jabry.com/myimghost/2013/RRajkumar/22.jpg&lt;/a&gt;\n\nFormat                                   : MPEG-PS\nFile size                                : 698 MiB\nDuration                                 : 39mn 6s\nOverall bit rate mode                    : Variable\nOverall bit rate                         : 2 495 Kbps\n\nVideo\nID                                       : 224 (0xE0)\nFormat                                   : MPEG Video\nFormat version                           : Version 2\nFormat profile                           : Main@Main\nFormat settings, BVOP                    : Yes\nFormat settings, Matrix                  : Default\nFormat settings, GOP                     : M=3, N=13\nDuration                                 : 39mn 6s\nBit rate mode                            : Variable\nBit rate                                 : 2 317 Kbps\nMaximum bit rate                         : 9 072 Kbps\nWidth                                    : 352 pixels\nHeight                                   : 288 pixels\nDisplay aspect ratio                     : 4:3\nFrame rate                               : 25.000 fps\nStandard                                 : PAL\nColor space                              : YUV\nChroma subsampling                       : 4:2:0\nBit depth                                : 8 bits\nScan type                                : Progressive\nCompression mode                         : Lossy\nBits/(Pixel*Frame)                       : 0.914\nStream size                              : 648 MiB (93%)\n\nAudio\nID                                       : 192 (0xC0)\nFormat                                   : MPEG Audio\nFormat version                           : Version 1\nFormat profile                           : Layer 2\nDuration                                 : 39mn 6s\nBit rate mode                            : Constant\nBit rate                                 : 128 Kbps\nChannel(s)                               : 2 channels\nSampling rate                            : 48.0 KHz\nCompression mode                         : Lossy\nStream size                              : 35.8 MiB (5%)","torrent":{"xt":"urn:btih:8d5350d7abdb2351dcad87315e1ec1943e91d929","amp;dn":"R...+Rajkumar+2013+Hindi+Movies+Super+CamRip+with+Sample+%7E+%E2%98%BBrDX%E2%98%BB","amp;tr":["udp%3A%2F%2Ftracker.openbittorrent.com%3A80","udp%3A%2F%2Fopen.demonii.com%3A1337","udp%3A%2F%2Ftracker.coppersurfer.tk%3A6969","udp%3A%2F%2Fexodus.desync.com%3A6969"],"infoHash":"8d5350d7abdb2351dcad87315e1ec1943e91d929","infoHashBuffer":{"type":"Buffer","data":[141,83,80,215,171,219,35,81,220,173,135,49,94,30,193,148,62,145,217,41]},"announce":[],"urlList":[]}}